<svg xmlns="http://www.w3.org/2000/svg" viewBox="0 0 116 116"><defs><style>.cls-1{fill:#fff;}</style></defs><title>lp_logo</title><g id="Banner"><g id="Logo"><path class="cls-1" d="M70.45,93.29a6.07,6.07,0,0,1-.56,2.48,4.2,4.2,0,0,1-1.33,1.68,4,4,0,0,1-2.59.78,4.09,4.09,0,0,1-2.59-.78,4.13,4.13,0,0,1-1.3-1.68,6.07,6.07,0,0,1-.56-2.48V79.84a6.31,6.31,0,0,1,.56-2.46A3.93,3.93,0,0,1,66,74.9a4.18,4.18,0,0,1,2.59.77,4.48,4.48,0,0,1,1.34,1.71,6.13,6.13,0,0,1,.55,2.46ZM67.1,79.84a2.08,2.08,0,0,0-.46-1.4.94.94,0,0,0-.68-.25A1,1,0,0,0,65,79a2.38,2.38,0,0,0-.13.84V93.32a2,2,0,0,0,.47,1.43A.87.87,0,0,0,66,95a1,1,0,0,0,1-.84,2.38,2.38,0,0,0,.12-.84Z"/><path class="cls-1" d="M79.49,98l-1.74-9.63h-.9V98H73.5V75.18h3.35c4,0,5.69,2.26,5.69,6.58,0,2.27-.59,4.32-1.86,5.18l2.14,11ZM76.85,85.27a2.32,2.32,0,0,0,1.58-.52c.52-.43.9-1.27.9-2.89a3.74,3.74,0,0,0-.9-2.92,2.29,2.29,0,0,0-1.58-.46Z"/><path class="cls-1" d="M90.85,83.37v-3.5a2,2,0,0,0-.43-1.43,1,1,0,0,0-.68-.25,1,1,0,0,0-1,.84,2.38,2.38,0,0,0-.12.84V93.59A2,2,0,0,0,89.08,95a.9.9,0,0,0,.66.25,1,1,0,0,0,1-.84,2,2,0,0,0,.12-.84V89.45H89.52V86.62h4.69V98h-2l-.4-1.09a3.37,3.37,0,0,1-2.59,1.34,3.4,3.4,0,0,1-2.39-.78,4.09,4.09,0,0,1-1.18-1.67,6.37,6.37,0,0,1-.39-2.52V79.83a6.31,6.31,0,0,1,.56-2.45,3.94,3.94,0,0,1,3.92-2.48,4.17,4.17,0,0,1,2.58.77,4.39,4.39,0,0,1,1.34,1.71,6.31,6.31,0,0,1,.56,2.45v3.51Z"/><path class="cls-1" d="M20.5,44.31,18.16,57.55a6.24,6.24,0,0,0-.06,2.51A4.11,4.11,0,0,0,19,61.91a3.56,3.56,0,0,0,5,.33l.21,1.14,2,.35,2-11.2-4.62-.81L23,54.48l1.31.23-.71,4.07a2.3,2.3,0,0,1-.27.8,1,1,0,0,1-1.12.66.92.92,0,0,1-.61-.34,2,2,0,0,1-.21-1.49L23.8,44.89a2,2,0,0,1,.26-.8,1.05,1.05,0,0,1,1.13-.66,1,1,0,0,1,.62.37A2,2,0,0,1,26,45.28l-.6,3.45,3.31.57.6-3.45a6.29,6.29,0,0,0-.12-2.52c0-.14-.09-.29-.14-.44H21a6.37,6.37,0,0,0-.46,1.42"/><path class="cls-1" d="M38.38,42.91H33.11L29.33,64.28l3.3.58,1.68-9.48.89.16,0,9.8,3.3.59-.19-11.26c1.41-.63,2.34-2.55,2.74-4.78.62-3.55-.17-5.89-2.71-7m-.52,6.51c-.28,1.59-.82,2.35-1.39,2.69a2.28,2.28,0,0,1-1.64.21L36,45.68a2.31,2.31,0,0,1,1.48.73,3.61,3.61,0,0,1,.38,3Z"/><polygon class="cls-1" points="49.18 57.91 49.82 54.3 46.76 53.76 47.8 47.86 52.06 48.61 52.65 45.22 45.1 43.88 41.14 66.36 48.69 67.69 49.29 64.3 45.04 63.55 46.13 57.37 49.18 57.91"/><polygon class="cls-1" points="61.86 46.84 59.61 59.59 59.42 59.56 59.33 58.47 58.19 46.19 55.25 45.67 51.29 68.15 54.32 68.68 56.56 55.93 56.75 55.97 56.84 57.05 57.99 69.33 60.92 69.85 64.89 47.37 61.86 46.84"/><polygon class="cls-1" points="75.34 52.59 75.92 49.32 67.91 47.91 67.33 51.18 71.77 51.96 63.84 66.71 63.21 70.25 71.96 71.79 72.54 68.52 67.28 67.6 75.34 52.59"/><polygon class="cls-1" points="82.3 63.75 82.94 60.14 79.88 59.6 80.92 53.7 85.17 54.45 85.77 51.06 78.22 49.73 74.25 72.2 78.34 72.92 81.91 72.92 82.4 70.14 78.15 69.39 79.25 63.21 82.3 63.75"/><polygon class="cls-1" points="92.73 65.43 92.54 65.4 92.45 64.31 91.3 52.03 88.37 51.52 84.6 72.92 87.72 72.92 89.68 61.77 89.86 61.8 89.96 62.89 90.89 72.92 94.53 72.92 98 53.22 94.97 52.68 92.73 65.43"/><polygon class="cls-1" points="27.86 17.73 25.07 25.34 24.91 25.71 24.79 25.71 24.79 17.73 21.44 17.73 21.44 40.56 24.8 40.56 24.8 32.48 25.58 30.62 25.76 30.16 25.84 30.16 25.94 30.62 28.27 40.56 31.53 40.56 28.05 25.25 31.12 17.73 27.86 17.73"/><polygon class="cls-1" points="33.86 17.73 33.86 40.56 41.52 40.56 41.52 37.11 37.21 37.11 37.21 30.84 40.31 30.84 40.31 27.17 37.21 27.17 37.21 21.18 41.52 21.18 41.52 17.73 33.86 17.73"/><rect class="cls-1" x="44.16" y="17.73" width="3.33" height="22.82"/><polygon class="cls-1" points="57.48 17.73 57.48 30.67 57.3 30.67 57.02 29.64 53.76 17.73 50.78 17.73 50.78 40.57 53.85 40.57 53.85 27.63 54.04 27.63 54.32 28.66 57.58 40.56 60.56 40.56 60.56 17.73 57.48 17.73"/><polygon class="cls-1" points="63.82 17.73 63.82 40.56 71.48 40.56 71.48 37.11 67.16 37.11 67.16 30.84 70.27 30.84 70.27 27.17 67.16 27.17 67.16 21.18 71.49 21.18 71.49 17.73 63.82 17.73"/><polygon class="cls-1" points="51.48 74.93 53.83 74.93 53.55 77.63 56.06 76.56 56.71 78.8 54.08 79.32 55.84 81.41 53.83 82.64 52.64 80.35 51.48 82.68 49.47 81.45 51.23 79.35 48.59 78.84 49.25 76.58 51.76 77.65 51.48 74.93"/></g></g></svg>