<svg xmlns="http://www.w3.org/2000/svg" viewBox="0 0 24 24">
    <title>smiley</title>
    <g id="smiley">
        <path class="cls-1" fill="#2949e5"
              d="M9.25.46A12,12,0,1,0,23.68,9.38,12,12,0,0,0,9.25.46m.27,1.18a10.78,10.78,0,1,1-8,13,10.78,10.78,0,0,1,8-13m-4.4,9.44a1.22,1.22,0,0,0-.91,1.46,1.24,1.24,0,0,0,1.47.9,1.21,1.21,0,1,0-.56-2.36m12-2.83a1.22,1.22,0,0,0,.56,2.37,1.22,1.22,0,0,0-.56-2.37m1,4.44a.59.59,0,0,0-.46.48c-.37,1.92-1.52,3.38-4.42,4.07s-4.75-.12-5.73-1.63a.61.61,0,0,0-.84-.18.59.59,0,0,0-.18.84h0c1.27,1.95,3.8,2.9,7,2.14s4.88-2.71,5.33-5a.61.61,0,0,0-.47-.72.75.75,0,0,0-.26,0"/>
    </g>
</svg>