<svg version="1" xmlns="http://www.w3.org/2000/svg" width="864" height="864" viewBox="0 0 648.000000 648.000000"><path d="M232.5 20.5c.3 2.5.7 6.6 1 9.2.3 2.7.8 6.6 1.1 8.8.3 2.2.6 5.8.8 8 .5 4.9 1.6 14.8 2.2 19.5.2 1.9.7 6 .9 9 .3 3 .8 7.1 1 9 .3 1.9.7 6 1 9 .4 3 .8 7.1 1 9 .3 1.9.7 6 1 9 .4 3 .8 7.1 1.1 9 .2 1.9.6 6.2 1 9.5.3 3.3.7 7.1 1 8.5.2 1.4.6 5.6 1 9.5.3 3.8.8 8.1 1 9.5.2 1.4.6 5 .9 8 .3 3 .7 6.9 1 8.6.2 1.7.7 5.7 1 9 .4 3.2.8 7.5 1 9.4.7 5.2 1.7 14.3 3 26.5.3 3.3.8 7.7 1.1 9.8.5 3.7.5 3.8-1.8 2.6-1.3-.7-2.5-1.2-2.8-1.2-.7.1-1.6-.3-21-8.2-9.1-3.7-16.9-6.8-17.5-6.9-.5-.2-2.1-.8-3.5-1.3-12.7-5.3-75.8-30.5-76.7-30.7-.7-.1-1.6-.5-1.9-.9-.4-.4-1.6-.7-2.6-.7s-1.8-.5-1.8-1c0-.6-.3-.9-.7-.8-.5 0-1.7-.2-2.8-.7-1.1-.4-6.3-2.5-11.5-4.6-5.2-2-17.6-7-27.5-11-9.9-3.9-20.1-8-22.6-9l-4.7-1.8-1 2.7c-1 2.5-8.4 25.7-8.8 27.4-.1.5-.3 1-.4 1.3-.1.3-.3.8-.5 1.2-.1.5-.4 1.5-.7 2.3-.6 1.6-.8 2.4-9.7 30.5-6.2 19.7-7.4 23.7-7.6 24.5-.1.3-.4 1.2-.8 2-.3.8-2.2 6.9-4.3 13.5-2 6.6-5.7 18.1-8.1 25.5-2.5 7.4-4.6 13.9-4.7 14.5-1.4 5.2-2 7.2-2.9 8.2-.5.7-.7 1.3-.3 1.3.3 0 .1 1.2-.5 2.7-.6 1.6-1.2 3.5-1.4 4.3-.2.8-1.3 4.2-2.4 7.5-2.2 6.6-2.5 7.9-1.3 7.1.6-.4 2.9 0 12.2 2 2.6.5 17.5 3.3 22 4 1.4.3 3.2.7 4 .9.8.3 3.3.7 5.5 1.1 2.2.3 4.3.8 4.6.9.3.2 2.8.7 5.5 1 2.7.4 6.5 1 8.4 1.5 1.9.5 4.9 1.1 6.5 1.4 1.7.3 4.1.8 5.5 1.1 1.4.2 3.6.7 5 .9 1.4.3 5 1 8 1.6 3 .6 7.1 1.3 9 1.6 1.9.3 5.1.9 7 1.4 1.9.5 5.1 1.2 7 1.5 1.9.3 11.6 2.1 21.5 4s19.1 3.7 20.5 3.9c1.4.3 3.5.7 4.6 1 3.6.8 9.8 1.9 12.4 2.2 1.4.1 2.5.3 2.5.4 0 .1.7.3 1.5.5 1.4.2 21.8 4.2 27 5.2 1.4.2 3.3.5 4.3.6.9.1 1.7.5 1.7 1.1 0 .7-5.4 7.9-10.2 13.6-.7.8-5.3 6.4-10.1 12.5-4.9 6-9.3 11.2-9.8 11.3-.5.2-.9 1-.9 1.8s-.4 1.4-.8 1.4c-.5 0-2.3 2-4.1 4.5-1.7 2.4-3.7 5-4.4 5.7-1.2 1.2-15.7 19.1-22.2 27.4-1.6 2-3.5 4.2-4 4.8-.6.6-2.6 3.1-4.4 5.6-1.9 2.5-3.9 4.9-4.6 5.5-.6.5-4.6 5.5-9 11-4.3 5.5-8.1 10.2-8.5 10.5-.3.3-2.1 2.5-4 5-4.9 6.3-7.2 9-9.7 11.7-1.2 1.3-1.9 2.3-1.5 2.3.4 0 .2.4-.4.8-1.4.9-25.9 31.6-25.8 32.2.2.6 5.5 3.9 7.7 4.6.9.4 1.7 1 1.7 1.4 0 .5.6 1 1.2 1.2.7.2 7.3 3.9 14.6 8.3s14 8.5 15 9c2.1 1.3 16.1 9.6 18.4 11 12 7.2 19 11.5 22.8 13.8 2.5 1.5 5.3 3 6.3 3.4.9.3 1.7.9 1.7 1.4 0 .5.5.9 1 .9.6 0 4.7 2.3 9.1 5 4.4 2.8 8.5 5 9 5s.9.4.9 1c0 .5.4 1 1 1 .8 0 5.9 2.9 13.5 7.8 1.1.6 3.5 2 5.2 2.9 1.8.9 3.3 2 3.3 2.5 0 .4.6.8 1.3.8.6 0 6.6 3.4 13.2 7.4 6.6 4.1 12.3 7.2 12.6 7 .3-.2 1.9-3 3.5-6.4 1.5-3.3 3.2-6 3.6-6 .4 0 .8-.6.8-1.4 0-1.3 2.9-7.5 4-8.6.3-.3 3.1-5.7 6.4-12 5-9.8 15.8-30.6 20.3-39 .7-1.4 1.3-3 1.3-3.7 0-.6.4-1.3.8-1.5.5-.1 5.2-8.9 10.7-19.3 12.9-25 22.7-43.7 29.2-56 2.9-5.5 7.4-14.2 10-19.3 2.5-5 4.9-9.2 5.2-9.2.4 0 2.8 4.6 5.5 10.3 9.8 20.4 17.9 37.4 22.1 46.3 7.5 15.9 15.6 32.7 20.1 41.6 2.4 4.9 4.2 8.8 3.8 8.8-.3 0 .5 1.5 1.8 3.2 1.3 1.8 2.1 3.3 1.9 3.3-.6 0 3.4 8 4.4 8.7.6.4.7.8.3.8-.4 0 1.7 4.8 4.6 10.7 2.9 6 6.8 13.9 8.6 17.8 1.8 3.8 5.9 12.5 9.2 19.3l5.8 12.3 3.3-1.9c1.7-1.1 6.4-3.7 10.2-6 3.9-2.2 9-5.2 11.5-6.6 2.5-1.5 6.1-3.4 8-4.4 1.9-.9 3.7-2 4-2.3.3-.4 2.9-1.9 5.8-3.5 9.2-5 10.6-5.8 21.2-11.9 5.8-3.2 10.7-6.2 11-6.5.3-.3 2.8-1.6 5.5-3 2.8-1.4 5.2-2.8 5.5-3.1.3-.3 4.1-2.5 8.5-5 4.4-2.4 8.8-4.8 9.7-5.4 4.1-2.4 24.5-14 26.3-15 1.1-.6 5.4-3.1 9.5-5.5 4.1-2.5 7.7-4.5 8-4.5.3 0 1.6-.8 3-1.7 1.4-.8 5.8-3.4 9.8-5.7l7.2-4.2-6.2-7.2c-3.3-4-6.4-7.4-6.7-7.7-.3-.3-2.8-3.2-5.6-6.5-2.7-3.3-5.4-6.5-6-7.1-.5-.6-2.9-3.3-5.2-6-2.3-2.7-5.1-6-6.3-7.4-1.2-1.4-3.9-4.5-6-7s-4.8-5.6-6-7c-1.2-1.4-3.9-4.5-6-7s-4.8-5.6-6-7c-1.2-1.4-3.9-4.5-6-7s-4.8-5.6-6-7c-1.2-1.4-4-4.7-6.3-7.4-2.3-2.8-5.2-6.1-6.5-7.5-1.3-1.4-3.5-4-5-5.9-1.5-1.9-3.8-4.6-5.2-6.1-1.4-1.5-4.5-5.1-7-8.1-2.5-2.9-4.9-5.8-5.5-6.4-.5-.6-3.5-4-6.5-7.6-3-3.6-5.9-7-6.5-7.6-.5-.6-2.9-3.3-5.2-6-2.3-2.7-5.1-6-6.3-7.4-7.6-8.7-10.5-12.4-10.5-13.3 0-.9 11.2-3.5 22.5-5.3 1.9-.3 4.3-.7 5.2-1 1-.3 3-.7 4.5-1 1.6-.2 3.7-.6 4.9-.9 1.2-.3 3.9-.7 6-1 2.1-.4 4.7-.8 5.6-1.1 1-.3 2.9-.7 4.3-1 1.4-.2 3.7-.6 5.3-.9 1.5-.3 4.2-.8 6.1-1.1 5-.8 7.1-1.3 8.9-1.8.9-.3 3.3-.7 5.2-1 1.9-.3 5.8-1 8.5-1.6 2.8-.6 6.5-1.3 8.4-1.5 1.9-.3 5.5-1 8-1.6 2.5-.6 6-1.3 7.6-1.6 1.7-.2 7.5-1.3 13-2.5 5.5-1.1 11.5-2.2 13.4-2.4 1.9-.3 3.7-.6 4.1-.9.3-.2 2.9-.7 5.6-1.1 2.7-.3 5.2-.8 5.5-1 .4-.2 2.4-.6 4.4-1 2.1-.3 4.7-.8 5.9-1 2-.4 6.8-1.2 10.9-2 1-.2 2.6-.5 3.5-.8.9-.3 3.3-.7 5.2-1 4.6-.7 23.3-4.6 23.6-4.9.2-.1-.6-3.6-1.7-7.7s-2.2-8.5-2.5-9.8c-.2-1.2-1.6-6.4-3-11.5-1.4-5-2.9-10.8-3.4-12.7-.6-2.7-6.3-24.7-8.6-33-.2-.8-1.1-4.2-1.9-7.5-.9-3.3-1.8-6.9-2.1-8-.3-1.1-.6-2.5-.7-3-.2-.6-.6-1.6-1-2.3-.5-.6-.6-1.2-.3-1.2.2 0-.9-4.8-2.5-10.8-1.7-5.9-3.2-11.8-3.5-13.2-.2-1.4-1.2-5-2-8-.9-3-2.2-7.8-2.9-10.5-.7-2.8-3-11.3-5-19-2-7.7-3.9-15-4-16.2-.2-1.2-.8-3.8-1.5-5.7l-1.1-3.5-7.7 3.3c-4.2 1.8-9.7 4.2-12.2 5.4-2.5 1.1-17.5 7.7-33.5 14.7-15.9 7-31.8 14-35.3 15.6-3.5 1.6-6.5 2.9-6.7 2.9-.3 0-4 1.6-8.2 3.6-4.3 1.9-8.7 3.9-9.8 4.4-1.1.4-4 1.7-6.5 2.8-3.9 1.8-17.2 7.6-26.5 11.7-1.6.7-5.6 2.4-8.8 3.9-3.2 1.4-5.9 2.6-6.2 2.6-.2 0-3.6 1.5-7.7 3.4-4 1.8-10.7 4.8-14.8 6.6-4.1 1.7-8.8 3.8-10.4 4.6-5.1 2.4-5.7 2-5.1-3.9.2-2.8.7-8.6 1-12.7.3-4.1.7-10.4 1-14 .3-3.6.7-9.6 1-13.4 1.1-17 1.7-24.4 2-28.6.5-5.8 1.4-16.6 2-25.8.3-3.9.8-10.5 1.1-14.5.9-12.2 1.2-16.9 1.9-26.2.3-5 .8-11 1-13.5.3-2.5.7-8.3 1-13 1-15.5 1.5-21.4 2-27.5.3-3.3.7-9.3 1-13.3l.4-7.2h-184l.6 4.5z"/></svg>